<?xml version="1.0" standalone="no"?>
<!DOCTYPE svg PUBLIC "-//W3C//DTD SVG 20010904//EN"
 "http://www.w3.org/TR/2001/REC-SVG-20010904/DTD/svg10.dtd">
<svg version="1.0" xmlns="http://www.w3.org/2000/svg"
 width="166.000000pt" height="166.000000pt" viewBox="0 0 166.000000 166.000000"
 preserveAspectRatio="xMidYMid meet">
<metadata>
Created by potrace 1.11, written by Peter Selinger 2001-2013
</metadata>
<g transform="translate(0.000000,166.000000) scale(0.100000,-0.100000)"
fill="#000000" stroke="none">
<path d="M122 1649 c-30 -4 -53 -15 -75 -37 l-32 -32 -3 -560 c-3 -619 -5
-600 61 -640 28 -18 51 -20 200 -20 l168 0 -3 -142 -3 -143 -52 1 c-49 1 -51
0 -55 -27 -3 -16 -2 -33 1 -38 4 -5 213 -8 506 -7 493 1 500 1 499 21 -2 51
-2 51 -56 50 l-53 0 -1 142 -2 142 179 3 179 3 31 31 c16 17 34 46 38 65 4 19
7 273 6 565 l0 531 -25 36 c-14 20 -37 42 -52 48 -29 12 -1371 20 -1456 8z
m1359 -106 c4 -21 5 -1070 1 -1080 -3 -9 -159 -12 -653 -12 l-649 1 0 549 0
549 650 0 c358 0 651 -3 651 -7z m-440 -1282 c4 0 7 -12 7 -26 0 -21 -5 -25
-29 -25 -16 0 -94 -1 -174 -1 -256 0 -233 -2 -230 24 1 12 3 24 4 27 1 4 401
5 422 1z"/>
</g>
</svg>
