<svg xmlns="http://www.w3.org/2000/svg" viewBox="0 0 164.25 164.68"><defs><style>.cls-1{fill:none;}.cls-2,.cls-3{fill:#bf5272;}.cls-3{font-size:64px;font-family:ClickerScript-Regular, Clicker Script;}</style></defs><title>CMK-Logo</title><g id="Layer_2" data-name="Layer 2"><g id="Layer_1-2" data-name="Layer 1"><rect class="cls-1" x="60.37" y="138.47" width="43.51" height="5.98"/><rect class="cls-1" x="16.74" y="10.06" width="130.76" height="110.06"/><path class="cls-2" d="M151.81,0H12.44C5.57,0,0,6,0,13.41V115.56C0,123,5.57,129,12.44,129H43.06V157.8H31.89v6.88H132.36V157.8H121.19V129h30.62c6.88,0,12.44-6,12.44-13.41V13.41C164.25,6,158.69,0,151.81,0ZM103.88,144.45H60.37v-6h43.51Zm43.63-24.33H16.74V10.06H147.51Z"/><text class="cls-3" transform="translate(26.8 82.76) scale(0.78 1)">CMK</text></g></g></svg>